<?xml version="1.0" encoding="UTF-8"?>
<svg version="1.1" xmlns="http://www.w3.org/2000/svg" width="1126" height="1126">
<path d="M0 0 C1.34764439 -0.0019553 2.69528821 -0.00434505 4.04293114 -0.00712797 C7.74758744 -0.01350884 11.45222201 -0.01369113 15.15688276 -0.01285056 C19.18705292 -0.01302044 23.21721539 -0.01893087 27.24738169 -0.02409142 C35.24164757 -0.03340898 43.23590792 -0.03733805 51.23017855 -0.03961039 C60.80596014 -0.04257472 70.3817344 -0.05127359 79.95751214 -0.06002467 C103.10465589 -0.08086229 126.2518009 -0.09133841 149.39895184 -0.10015428 C160.35328499 -0.10436239 171.30761758 -0.10958421 182.26195027 -0.11483881 C219.77216134 -0.1327298 257.28237258 -0.14772441 294.79258728 -0.155159 C297.14726084 -0.15563375 299.50193439 -0.15610964 301.85660794 -0.15658666 C303.60814225 -0.15694122 303.60814225 -0.15694122 305.3950611 -0.15730295 C311.31099929 -0.15850413 317.22693748 -0.15971958 323.14287567 -0.16094494 C324.31690525 -0.16118509 325.49093483 -0.16142524 326.70054106 -0.16167267 C364.74726454 -0.16956187 402.7939568 -0.19298548 440.84066666 -0.22550088 C481.08070844 -0.25982783 521.32073197 -0.27951286 561.56078863 -0.28280324 C565.9816599 -0.28322076 570.40253115 -0.28370032 574.8234024 -0.28422642 C576.45617577 -0.28441121 576.45617577 -0.28441121 578.12193445 -0.28459973 C595.61251154 -0.28692835 613.1030523 -0.30256957 630.59361646 -0.32306826 C648.18928537 -0.34336225 665.7849108 -0.34878672 683.38058925 -0.33929763 C693.82247203 -0.33409633 704.26420967 -0.33989505 714.70607146 -0.3618323 C721.69668251 -0.37540351 728.68719435 -0.37420798 735.67780653 -0.36143034 C739.65078102 -0.35457543 743.62347935 -0.35371865 747.59642845 -0.37099043 C790.91656177 -0.54744692 831.52005969 8.98946721 866.76055145 35.13422108 C867.32290497 35.54849354 867.88525848 35.962766 868.46465302 36.38959217 C874.50028627 40.85284649 880.3623693 45.33870863 885.4910202 50.85687733 C886.75479954 52.26431859 886.75479954 52.26431859 888.76055145 53.13422108 C888.76055145 53.79422108 888.76055145 54.45422108 888.76055145 55.13422108 C889.42055145 55.13422108 890.08055145 55.13422108 890.76055145 55.13422108 C893.30768386 57.59668426 895.49404714 60.4144159 897.76055145 63.13422108 C898.46824677 63.96695545 899.17594208 64.79968983 899.9050827 65.65765858 C922.84439202 93.05627321 936.93697581 124.94934985 942.76055145 160.13422108 C942.93073404 161.0660312 943.10091663 161.99784133 943.27625626 162.95788813 C944.08335562 168.70051176 943.90167321 174.49817491 943.89477253 180.28464985 C943.8967272 181.63484222 943.89911671 182.98503401 943.9019005 184.33522493 C943.90828926 188.05161101 943.90846302 191.76797544 943.90762309 195.48436596 C943.90779282 199.52549828 943.9137015 203.5666229 943.91886395 207.60775137 C943.92818635 215.62589908 943.9321114 223.64404127 943.93438292 231.66219372 C943.937346 241.26570528 943.94604414 250.86920951 943.9547972 260.47271723 C943.97564018 283.6878224 943.98611187 306.90292885 943.99492681 330.1180412 C943.99913424 341.1036992 944.00435616 352.08935666 944.00961134 363.0750142 C944.02750298 400.68942172 944.04249769 438.3038294 944.04993153 475.91824055 C944.05040628 478.27970391 944.05088217 480.64116726 944.05135919 483.00263062 C944.05171375 484.75922432 944.05171375 484.75922432 944.05207548 486.55130476 C944.05327666 492.48437973 944.05449212 498.4174547 944.05571747 504.35052967 C944.05595762 505.52796258 944.05619777 506.70539549 944.0564452 507.91850818 C944.06433448 546.07590806 944.08775791 584.23327683 944.12027341 622.39066312 C944.15459704 662.74371337 944.1742851 703.09674542 944.17757577 743.4498105 C944.17799329 747.88275592 944.17847286 752.31570133 944.17899895 756.74864674 C944.17912214 757.84014253 944.17924533 758.93163833 944.17937226 760.05620976 C944.18170132 777.59818008 944.1973451 795.14011417 944.21784079 812.6820716 C944.2381305 830.32825456 944.24356126 847.97439417 944.23407016 865.62058663 C944.22886716 876.09377937 944.23467571 886.56682744 944.25660483 897.03999926 C944.270169 904.05023976 944.26898662 911.06038129 944.25620287 918.0706229 C944.24934333 922.05564643 944.2485075 926.04039454 944.26576296 930.02539283 C944.43951179 972.85223395 934.77589684 1013.3287078 908.76055145 1048.13422108 C908.34772919 1048.6936742 907.93490692 1049.25312733 907.50957489 1049.82953358 C902.67244833 1056.37193978 897.73537648 1062.57840976 891.76055145 1068.13422108 C890.97680145 1068.91797108 890.19305145 1069.70172108 889.38555145 1070.50922108 C888.51930145 1071.37547108 887.65305145 1072.24172108 886.76055145 1073.13422108 C886.2191452 1073.73363514 885.67773895 1074.3330492 885.11992645 1074.95062733 C858.09675009 1103.83563671 814.7792722 1121.74065504 775.76055145 1125.13422108 C771.3473015 1125.28009747 766.93645677 1125.27373373 762.52110291 1125.26844215 C761.17345852 1125.27039746 759.8258147 1125.27278721 758.47817177 1125.27557012 C754.77351546 1125.281951 751.0688809 1125.28213328 747.36422015 1125.28129272 C743.33404999 1125.2814626 739.30388752 1125.28737302 735.27372122 1125.29253358 C727.27945533 1125.30185114 719.28519499 1125.30578021 711.29092435 1125.30805254 C701.71514276 1125.31101688 692.1393685 1125.31971574 682.56359076 1125.32846682 C659.41644702 1125.34930444 636.269302 1125.35978056 613.12215106 1125.36859643 C602.16781792 1125.37280454 591.21348532 1125.37802636 580.25915264 1125.38328096 C542.74894156 1125.40117195 505.23873033 1125.41616657 467.72851562 1125.42360115 C465.37384207 1125.42407591 463.01916852 1125.42455179 460.66449496 1125.42502881 C458.91296065 1125.42538338 458.91296065 1125.42538338 457.12604181 1125.4257451 C451.21010361 1125.42694628 445.29416542 1125.42816174 439.37822723 1125.42938709 C437.61718287 1125.42974732 437.61718287 1125.42974732 435.82056185 1125.43011482 C397.77383837 1125.43800402 359.7271461 1125.46142764 321.68043625 1125.49394304 C281.44039446 1125.52826998 241.20037094 1125.54795502 200.96031427 1125.55124539 C196.53944301 1125.55166292 192.11857175 1125.55214248 187.6977005 1125.55266857 C186.06492714 1125.55285336 186.06492714 1125.55285336 184.39916846 1125.55304188 C166.90859136 1125.5553705 149.41805061 1125.57101173 131.92748645 1125.59151042 C114.33181754 1125.6118044 96.73619211 1125.61722887 79.14051366 1125.60773978 C68.69863087 1125.60253849 58.25689323 1125.60833721 47.81503144 1125.63027446 C40.8244204 1125.64384567 33.83390855 1125.64265013 26.84329637 1125.6298725 C22.87032188 1125.62301759 18.89762356 1125.6221608 14.92467445 1125.63943259 C-28.39545887 1125.81588907 -68.99895678 1116.27897494 -104.23944855 1090.13422108 C-104.80180206 1089.71994862 -105.36415558 1089.30567616 -105.94355011 1088.87884998 C-112.48258428 1084.04333874 -118.68624699 1079.10623951 -124.23944855 1073.13422108 C-125.02319855 1072.35047108 -125.80694855 1071.56672108 -126.61444855 1070.75922108 C-127.91382355 1069.45984608 -127.91382355 1069.45984608 -129.23944855 1068.13422108 C-130.15597198 1067.30470936 -130.15597198 1067.30470936 -131.09101105 1066.45843983 C-158.66550507 1040.63868634 -174.3183142 1001.68177755 -180.23944855 965.13422108 C-180.40930383 964.20339285 -180.57915912 963.27256463 -180.75416154 962.31352949 C-181.562168 956.56986025 -181.38057167 950.77141845 -181.37366962 944.9837923 C-181.3756243 943.63359994 -181.37801381 942.28340814 -181.38079759 940.93321723 C-181.38718635 937.21683115 -181.38736012 933.50046672 -181.38652019 929.78407619 C-181.38668991 925.74294387 -181.3925986 921.70181925 -181.39776105 917.66069078 C-181.40708345 909.64254307 -181.4110085 901.62440088 -181.41328001 893.60624843 C-181.4162431 884.00273688 -181.42494124 874.39923264 -181.43369429 864.79572493 C-181.45453727 841.58061975 -181.46500896 818.3655133 -181.4738239 795.15040095 C-181.47803133 784.16474295 -181.48325325 773.1790855 -181.48850843 762.19342795 C-181.50640008 724.57902043 -181.52139479 686.96461275 -181.52882862 649.35020161 C-181.52930338 646.98873825 -181.52977926 644.62727489 -181.53025628 642.26581153 C-181.53049266 641.09474907 -181.53072903 639.9236866 -181.53097257 638.7171374 C-181.53217376 632.78406242 -181.53338921 626.85098745 -181.53461456 620.91791248 C-181.53485471 619.74047958 -181.53509486 618.56304667 -181.53534229 617.34993397 C-181.54323157 579.19253409 -181.56665501 541.03516533 -181.59917051 502.87777903 C-181.63349414 462.52472878 -181.65318219 422.17169673 -181.65647286 381.81863165 C-181.65689039 377.38568623 -181.65736995 372.95274082 -181.65789604 368.51979542 C-181.65808083 366.88255172 -181.65808083 366.88255172 -181.65826935 365.21223239 C-181.66059842 347.67026208 -181.67624219 330.12832798 -181.69673789 312.58637056 C-181.71702759 294.9401876 -181.72245836 277.29404799 -181.71296725 259.64785552 C-181.70776425 249.17466278 -181.71357281 238.70161471 -181.73550193 228.22844289 C-181.74906609 221.2182024 -181.74788372 214.20806086 -181.73509997 207.19781925 C-181.72824043 203.21279572 -181.72740459 199.22804762 -181.74466006 195.24304932 C-181.92975961 149.62319564 -170.4502342 109.02469416 -142.73944855 72.38422108 C-142.20553497 71.6747533 -141.6716214 70.96528553 -141.12152863 70.23431873 C-137.48243284 65.49577979 -133.54682025 61.26891418 -129.23944855 57.13422108 C-128.45569855 56.35047108 -127.67194855 55.56672108 -126.86444855 54.75922108 C-125.99819855 53.89297108 -125.13194855 53.02672108 -124.23944855 52.13422108 C-123.68644073 51.52320545 -123.13343292 50.91218983 -122.5636673 50.28265858 C-96.87933142 22.85278531 -57.70548352 6.76210864 -21.23944855 1.13422108 C-19.59494807 0.87943815 -19.59494807 0.87943815 -17.91722536 0.61950809 C-11.960212 -0.11281419 -5.99314391 -0.00718248 0 0 Z " fill="#0088E4" transform="translate(181.23944854736328,-0.13422107696533203)"/>
<path d="M0 0 C6.88659991 -0.126851 13.77289823 -0.21437266 20.66040039 -0.2746582 C23.00296284 -0.29979125 25.34544695 -0.33390308 27.68774414 -0.37719727 C31.05634899 -0.43789928 34.42391649 -0.46622251 37.79296875 -0.48828125 C39.36198189 -0.52699089 39.36198189 -0.52699089 40.96269226 -0.56648254 C48.2674296 -0.56929568 48.2674296 -0.56929568 52.09667969 2.40649414 C53.03882324 3.69027954 53.03882324 3.69027954 54 5 C54.54785156 5.65484375 55.09570312 6.3096875 55.66015625 6.984375 C56.6011366 8.16911906 57.53859977 9.35666452 58.47265625 10.546875 C60.29075049 12.27662195 61.58742713 12.45965951 64 13 C66.75 15.375 66.75 15.375 69 18 C69 18.99 69 19.98 69 21 C69.5775 21.2475 70.155 21.495 70.75 21.75 C73.32939979 23.18299988 75.06121592 24.78424676 77 27 C77 27.66 77 28.32 77 29 C77.556875 29.061875 78.11375 29.12375 78.6875 29.1875 C82.00086472 30.35165517 83.70475296 32.39458444 86 35 C86.33 35.99 86.66 36.98 87 38 C87.804375 38.309375 88.60875 38.61875 89.4375 38.9375 C92.52687989 40.21846239 92.60554892 41.11813443 94 44 C94.66 44.144375 95.32 44.28875 96 44.4375 C96.99 44.7159375 96.99 44.7159375 98 45 C98.68132451 46.66072849 99.34742127 48.327767 100 50 C101.84971696 51.05021103 101.84971696 51.05021103 104 52 C105.70993434 53.6222454 107.37347684 55.29413425 109 57 C109.928125 57.86625 110.85625 58.7325 111.8125 59.625 C114 62 114 62 114 65 C114.680625 65.04125 115.36125 65.0825 116.0625 65.125 C122.34526002 66.99646043 126.52825549 72.42706913 130.59375 77.3359375 C132.59177376 79.70026561 134.78344376 81.84177418 137 84 C137.680625 84.721875 138.36125 85.44375 139.0625 86.1875 C140.85575323 88.06005773 140.85575323 88.06005773 142.9375 88.875 C145.47684745 90.26009861 146.92794252 92.16768961 148.703125 94.4140625 C150.15955376 96.24893168 150.15955376 96.24893168 152.6875 98.6875 C155 101 155 101 157 104 C156.360625 104.61875 155.72125 105.2375 155.0625 105.875 C152.96116416 107.82597612 152.96116416 107.82597612 152 110 C151.401875 110.28875 150.80375 110.5775 150.1875 110.875 C147.84662175 111.93153894 147.84662175 111.93153894 145.9375 114.125 C144 116 144 116 141 116 C140.938125 116.556875 140.87625 117.11375 140.8125 117.6875 C139.6391063 121.027159 137.65553186 122.71500747 135 125 C133.66893378 125.34227417 132.33599921 125.67751743 131 126 C130.71125 126.5775 130.4225 127.155 130.125 127.75 C128.78886441 130.42227118 126.96761049 131.74891323 124.6484375 133.5703125 C122.28709704 135.61829972 120.4177971 137.99597036 118.4921875 140.44921875 C116.80453733 142.2031379 115.1647802 142.91971982 113 144 C111.43544512 145.53552467 111.43544512 145.53552467 110.0625 147.3125 C106.54720154 151.56601113 102.80694855 155.34726754 98.5625 158.875 C95.46363304 161.47535358 92.94487452 164.30108275 90.45703125 167.484375 C88.7902033 169.21823356 87.1447884 169.94456065 85 171 C83.73626123 172.45816012 82.47616588 173.92081008 81.2734375 175.4296875 C78.23309293 179.17882405 74.6550477 182.31047983 71 185.4375 C68.51839632 187.57056384 66.36914606 189.65761012 64.375 192.25 C61.78278955 195.25150684 59.49976886 196.25011557 56 198 C54.95107762 199.63631892 53.95093297 201.30485863 53 203 C50.75638828 205.59240726 48.96763523 206.86329099 45.54013062 207.34753418 C42.39810762 207.46374886 39.28037936 207.44900892 36.13671875 207.390625 C34.98959915 207.38496521 33.84247955 207.37930542 32.66059875 207.37347412 C29.00247187 207.35111197 25.34533006 207.30091327 21.6875 207.25 C19.20509229 207.22993491 16.7226692 207.21168416 14.24023438 207.1953125 C8.15982105 207.15124759 2.07998091 207.08433594 -4 207 C0.625 202.125 0.625 202.125 4 201 C4.12375 200.360625 4.2475 199.72125 4.375 199.0625 C4.58125 198.381875 4.7875 197.70125 5 197 C6.11375 196.566875 6.11375 196.566875 7.25 196.125 C10.11071762 194.95470643 10.8398572 194.22156118 12.6875 191.875 C13.450625 190.92625 14.21375 189.9775 15 189 C15.66 189 16.32 189 17 189 C17.33 188.01 17.66 187.02 18 186 C19.31266518 184.64631404 20.64567325 183.31200404 22 182 C22.33 181.34 22.66 180.68 23 180 C23.639375 179.690625 24.27875 179.38125 24.9375 179.0625 C27.31971493 178.04654078 27.31971493 178.04654078 29 175 C29.99 174.690625 30.98 174.38125 32 174.0625 C35.06182146 173.34070263 35.06182146 173.34070263 36.0625 171.1875 C36.371875 170.465625 36.68125 169.74375 37 169 C39.5 166.25 39.5 166.25 42 164 C42.66 164 43.32 164 44 164 C44.2475 163.443125 44.495 162.88625 44.75 162.3125 C46.25010679 159.53730243 47.83115615 157.2964229 50 155 C51.32 155 52.64 155 54 155 C54.20625 154.443125 54.4125 153.88625 54.625 153.3125 C56.14841716 150.75038933 57.98227393 149.30666755 60.30078125 147.4765625 C62.19857165 145.82744809 63.75423194 144.04618502 65.375 142.125 C68.38566603 138.58813349 71.62713146 135.58367962 75.1640625 132.58203125 C76.66782178 131.28623868 78.09636715 129.90363285 79.5 128.5 C81.62137386 126.37862614 83.78452885 124.44655362 86.0625 122.5 C88.48604988 120.42202196 90.29070093 118.62047379 92.25 116.0625 C92.8275 115.381875 93.405 114.70125 94 114 C95.32 114 96.64 114 98 114 C98.99 112.02 98.99 112.02 100 110 C100.66 110 101.32 110 102 110 C103.57377663 106.67143553 103.57377663 106.67143553 103.9375 103.0625 C101.48547208 97.66803857 97.92807499 94.93020675 93 92 C92.67 91.319375 92.34 90.63875 92 89.9375 C91.14283161 87.75526694 91.14283161 87.75526694 88.625 87.0625 C84.32638392 85.32258397 82.50347568 81.75521351 80 78 C78.515 77.505 78.515 77.505 77 77 C75.98133771 75.34467377 74.98189187 73.67739862 74 72 C72.515 71.01 72.515 71.01 71 70 C71 69.34 71 68.68 71 68 C69.824375 67.62875 69.824375 67.62875 68.625 67.25 C65.53120098 65.77676237 65.43445464 64.95856269 64 62 C62.33720673 60.9935725 60.67016516 59.99414593 59 59 C58.360625 58.195625 57.72125 57.39125 57.0625 56.5625 C55.08992072 53.84497639 55.08992072 53.84497639 52.0625 52.0625 C49.21446406 50.14443498 47.44831502 48.25576708 45.34765625 45.57421875 C43.35688479 43.24876687 41.03743894 41.38555925 38.69140625 39.4296875 C35.1552527 36.44069859 32.10607779 33.14011148 29.1875 29.5625 C26.42320395 26.27811733 23.35634601 23.89462698 19.8828125 21.3984375 C16.30036142 18.73761284 13.47380469 15.58905448 10.6875 12.125 C8.01531015 8.81902154 4.85168386 6.20544849 1.57421875 3.515625 C1.05472656 3.01546875 0.53523437 2.5153125 0 2 C0 1.34 0 0.68 0 0 Z " fill="#FCFDFE" transform="translate(168,462)"/>
<path d="M0 0 C4.58300125 -0.14505993 9.16541363 -0.23399681 13.75 -0.3125 C15.70292969 -0.3753418 15.70292969 -0.3753418 17.6953125 -0.43945312 C18.94570312 -0.45556641 20.19609375 -0.47167969 21.484375 -0.48828125 C22.63647461 -0.51446533 23.78857422 -0.54064941 24.97558594 -0.56762695 C28 0 28 0 30.24316406 2.39770508 C31.11279785 3.68584106 31.11279785 3.68584106 32 5 C33.65893182 6.34294481 35.32476605 7.67744688 37 9 C37.66 9.99 38.32 10.98 39 12 C39.7425 12.2475 40.485 12.495 41.25 12.75 C45.16615201 14.5300691 47.5830088 17.47833585 50 21 C50 21.66 50 22.32 50 23 C50.928125 23.0928125 50.928125 23.0928125 51.875 23.1875 C52.57625 23.455625 53.2775 23.72375 54 24 C54.70211894 25.65204456 55.36971413 27.31923769 56 29 C56.99 29.33 57.98 29.66 59 30 C59 30.66 59 31.32 59 32 C59.78375 32.2475 60.5675 32.495 61.375 32.75 C64.46493987 34.22139994 64.53659227 35.07318455 66 38 C66.7425 38.268125 67.485 38.53625 68.25 38.8125 C71.66487438 40.28710484 73.03020527 42.21769648 75.328125 45.06640625 C77.68606434 47.79346227 80.37504755 50.04079611 83.1171875 52.37109375 C85.53355763 54.46160484 87.74143336 56.74143336 90 59 C90.928125 59.721875 91.85625 60.44375 92.8125 61.1875 C93.534375 61.785625 94.25625 62.38375 95 63 C95 63.66 95 64.32 95 65 C95.556875 65.226875 96.11375 65.45375 96.6875 65.6875 C99.66159588 67.37550036 101.72008865 69.46676517 104 72 C104 72.66 104 73.32 104 74 C104.556875 74.226875 105.11375 74.45375 105.6875 74.6875 C108.66159588 76.37550036 110.72008865 78.46676517 113 81 C113 81.66 113 82.32 113 83 C113.515625 83.226875 114.03125 83.45375 114.5625 83.6875 C120.75909195 87.02412643 125.08460163 90.92908025 129.51953125 96.328125 C130.91416916 98.11256099 130.91416916 98.11256099 133 99 C133 99.66 133 100.32 133 101 C133.66 101 134.32 101 135 101 C135 102.32 135 103.64 135 105 C134.38125 105.061875 133.7625 105.12375 133.125 105.1875 C132.42375 105.455625 131.7225 105.72375 131 106 C130.30959426 107.65697379 129.6469365 109.3255761 129 111 C126.50429084 113.96787035 124.94238801 115.72775457 121.1875 116.8125 C120.465625 116.874375 119.74375 116.93625 119 117 C118.9071875 117.86625 118.9071875 117.86625 118.8125 118.75 C117.6726745 121.90643986 115.66405371 123.03367464 113 125 C111.97980427 125.9793879 110.97850195 126.97895449 110 128 C107.84321389 130.15678611 105.68397687 132.30812255 103.5 134.4375 C100.96631631 136.92098176 100.96631631 136.92098176 99 139.6875 C96.75107291 142.28782195 95.13170951 142.7473162 92 144 C90.62517293 145.63260714 89.29352333 147.30225062 88 149 C86.33333333 150.33333333 84.66666667 151.66666667 83 153 C82.34 153.825 81.68 154.65 81 155.5 C78.89680365 158.12899543 76.62100457 159.90319635 74 162 C73.360625 162.825 72.72125 163.65 72.0625 164.5 C69.68296837 167.38428076 67.12103314 168.96177428 64 171 C60.95022902 173.81517321 58.25905401 176.85402032 55.5625 180 C52.602125 183.42273291 49.52113478 186.16778289 46 189 C45.154375 189.845625 44.30875 190.69125 43.4375 191.5625 C41.07894717 193.92105283 38.60170334 195.91863733 36 198 C33.63547898 200.30684977 31.34782522 202.57509655 29.25488281 205.13183594 C26.22108109 207.64533212 24.38547888 207.46155416 20.484375 207.390625 C18.60878906 207.37128906 18.60878906 207.37128906 16.6953125 207.3515625 C14.74238281 207.30128906 14.74238281 207.30128906 12.75 207.25 C11.43257812 207.23195313 10.11515625 207.21390625 8.7578125 207.1953125 C5.50447692 207.14816271 2.25260375 207.08236044 -1 207 C0.36983503 203.83884224 0.9890638 203.0072908 4 201 C4.33 200.01 4.66 199.02 5 198 C7.2578125 196.45703125 7.2578125 196.45703125 10.125 194.8125 C15.51663521 191.50907583 19.07574222 187.87963991 23 183 C24.64783606 181.31471312 26.31002677 179.64302953 28 178 C28.515625 177.443125 29.03125 176.88625 29.5625 176.3125 C31 175 31 175 32.90625 174.125 C35.19106073 172.8973405 36.32608302 171.70065528 37.9375 169.6875 C42.39254825 164.29689162 47.34012312 159.1486755 53 155 C53.66 155 54.32 155 55 155 C55.20625 154.443125 55.4125 153.88625 55.625 153.3125 C57.17050517 150.71324131 59.07036884 149.21222029 61.421875 147.3515625 C63.94681359 145.18911509 65.9086218 142.57400394 68 140 C71.40707289 136.22459491 74.82082309 133.74528131 79.23046875 131.30859375 C81.31697003 129.76559611 81.88954177 128.30561243 83 126 C84.65816784 125.31246699 86.32459336 124.64438717 88 124 C88.495 122.515 88.495 122.515 89 121 C89.99 120.34 90.98 119.68 92 119 C92.28875 118.319375 92.5775 117.63875 92.875 116.9375 C94 115 94 115 96.625 114.25 C97.40875 114.1675 98.1925 114.085 99 114 C99.495 112.515 99.495 112.515 100 111 C101.62890625 109.39453125 101.62890625 109.39453125 103.5625 107.8125 C104.20316406 107.28269531 104.84382813 106.75289062 105.50390625 106.20703125 C105.99761719 105.80871094 106.49132812 105.41039062 107 105 C105.75120909 101.25362727 103.84204893 99.70986061 101 97 C100.319375 96.2575 99.63875 95.515 98.9375 94.75 C97.16489257 92.85475527 97.16489257 92.85475527 94.9375 92.5625 C92.00398464 91.71083425 91.49981705 89.57968532 90 87 C88.34211215 85.65576661 86.67423683 84.32381517 85 83 C83.44062913 81.2842806 81.96071393 79.51535671 80.4765625 77.734375 C78.44840296 75.35209237 76.24054135 73.18157974 74 71 C73.01 69.9171875 73.01 69.9171875 72 68.8125 C70.06144604 66.84195341 70.06144604 66.84195341 67.3125 65.9375 C66.1678125 65.4734375 66.1678125 65.4734375 65 65 C64.67 64.01 64.34 63.02 64 62 C62.35666496 60.96210419 60.68756133 59.96432076 59 59 C56.91835085 57.23860457 55.8696744 55.77193019 54.5 53.375 C53.16270693 50.70243687 53.16270693 50.70243687 50 50 C48.98133771 48.34467377 47.98189187 46.67739862 47 45 C46.01 44.34 45.02 43.68 44 43 C44 42.34 44 41.68 44 41 C43.278125 40.95875 42.55625 40.9175 41.8125 40.875 C38.51215186 39.84822502 37.37070354 38.31155888 35.31640625 35.61328125 C33.20971385 33.03148909 30.57842168 31.09496761 28 29 C25.12221843 26.26610751 22.51898809 23.43377125 20 20.375 C17.58422611 17.50202082 15.23929899 15.91035581 12 14 C10.78119535 12.5566787 9.56470208 11.11024931 8.40234375 9.62109375 C6.30920819 7.20145237 3.85627388 5.28045604 1.35546875 3.296875 C0.90816406 2.86890625 0.46085937 2.4409375 0 2 C0 1.34 0 0.68 0 0 Z " fill="#FAFCFE" transform="translate(124,462)"/>
<path d="M0 0 C9.30769231 5.92307692 9.30769231 5.92307692 11 11 C12.11375 11.433125 12.11375 11.433125 13.25 11.875 C16.6926176 13.28334357 18.56800233 15.22057409 21 18 C21 18.66 21 19.32 21 20 C21.66 20 22.32 20 23 20 C25.48817699 22.23935929 27.58950855 24.15487055 29.0625 27.1875 C30.30151627 29.58293146 31.57248176 29.89027738 34 31 C37.65856243 33.7204695 40.78157878 36.78157878 44 40 C44.94875 40.763125 45.8975 41.52625 46.875 42.3125 C50.07162633 44.91746284 52.65700088 47.93352326 55.3203125 51.0703125 C56.79505487 52.76455141 58.31442432 54.32528367 59.9375 55.875 C62 58 62 58 62 60 C62.556875 60.061875 63.11375 60.12375 63.6875 60.1875 C66.97272942 61.34176979 68.607803 63.49388886 71 66 C72.09287186 66.93010371 73.19702836 67.84712413 74.3125 68.75 C75.199375 69.4925 76.08625 70.235 77 71 C77 71.33 77 71.66 77 72 C69.98929215 72.12696594 62.97888168 72.21442112 55.96728516 72.2746582 C53.58305786 72.29977409 51.19890735 72.33387324 48.81494141 72.37719727 C45.38424721 72.43797447 41.95457256 72.46623993 38.5234375 72.48828125 C37.46071625 72.51408768 36.397995 72.5398941 35.30307007 72.56648254 C27.02956903 72.56960525 27.02956903 72.56960525 23.46728516 69.53198242 C22.65308105 68.69642822 21.83887695 67.86087402 21 67 C20.01 66.67 19.02 66.34 18 66 C17.566875 65.2575 17.13375 64.515 16.6875 63.75 C14.61997594 60.38070153 12.05127507 58.49083679 9 56 C8.29875 55.0925 7.5975 54.185 6.875 53.25 C5.2422407 50.8322949 5.2422407 50.8322949 2.875 50.5 C1.946875 50.2525 1.946875 50.2525 1 50 C0.29788106 48.34795544 -0.36971413 46.68076231 -1 45 C-2.485 44.505 -2.485 44.505 -4 44 C-4 43.34 -4 42.68 -4 42 C-5.1446875 41.6596875 -5.1446875 41.6596875 -6.3125 41.3125 C-9.59254454 39.71061778 -10.15826324 38.06956127 -12 35 C-12.78375 34.690625 -13.5675 34.38125 -14.375 34.0625 C-18.11098957 32.55031375 -19.51854172 30.15212268 -22 27 C-22.66 26.67 -23.32 26.34 -24 26 C-24 23 -24 23 -22.6796875 21.53515625 C-22.12539063 21.02855469 -21.57109375 20.52195312 -21 20 C-20.03585676 18.81721226 -19.0776326 17.62957809 -18.125 16.4375 C-15.60473417 13.44936303 -13.6796263 12.35565179 -10 11 C-8.62517293 9.36739286 -7.29352333 7.69774938 -6 6 C-4.34466005 4.65263027 -2.67987227 3.31665664 -1 2 C-0.67 1.34 -0.34 0.68 0 0 Z " fill="#FBFDFE" transform="translate(315,597)"/>
<path d="M0 0 C16.83 0 33.66 0 51 0 C50.67 0.99 50.34 1.98 50 3 C49.34 3 48.68 3 48 3 C47.62875 3.9590625 47.62875 3.9590625 47.25 4.9375 C46 7 46 7 43.875 7.75 C43.25625 7.8325 42.6375 7.915 42 8 C41.9175 8.61875 41.835 9.2375 41.75 9.875 C41 12 41 12 39.0625 13.0625 C38.381875 13.371875 37.70125 13.68125 37 14 C36.34 14.99 35.68 15.98 35 17 C33.515 17.495 33.515 17.495 32 18 C30.41441619 19.63502936 30.41441619 19.63502936 28.9375 21.5625 C27.40234375 23.50390625 27.40234375 23.50390625 26 25 C25.34 25 24.68 25 24 25 C24 25.66 24 26.32 24 27 C23.34 27 22.68 27 22 27 C21.773125 27.5775 21.54625 28.155 21.3125 28.75 C19.65238361 31.59591381 17.60812043 32.99841921 15 35 C14.195625 35.804375 13.39125 36.60875 12.5625 37.4375 C10 40 10 40 7 42.4375 C3.92096119 45.06751232 1.54921599 47.8625034 -1 51 C-2.64646685 52.68662458 -4.31183067 54.35511706 -6 56 C-6.66 56.70125 -7.32 57.4025 -8 58.125 C-10 60 -10 60 -12.5 61.4375 C-15.14554064 62.89912171 -15.14554064 62.89912171 -17 65.5 C-19.10809077 68.13511346 -21.03904214 69.43727224 -24 71 C-25.17539996 70.07347299 -26.34010577 69.13336613 -27.5 68.1875 C-28.1496875 67.66542969 -28.799375 67.14335938 -29.46875 66.60546875 C-31 65 -31 65 -31 62 C-31.53625 61.938125 -32.0725 61.87625 -32.625 61.8125 C-37.34790773 60.19676841 -40.66059295 56.53201748 -43.75 52.75 C-45.70631884 49.97640062 -45.70631884 49.97640062 -48 49 C-48 48.34 -48 47.68 -48 47 C-47.34 47 -46.68 47 -46 47 C-45.773125 46.443125 -45.54625 45.88625 -45.3125 45.3125 C-43.62449964 42.33840412 -41.53323483 40.27991135 -39 38 C-38.34 38 -37.68 38 -37 38 C-36.773125 37.443125 -36.54625 36.88625 -36.3125 36.3125 C-34.62449964 33.33840412 -32.53323483 31.27991135 -30 29 C-29.34 29 -28.68 29 -28 29 C-27.814375 28.443125 -27.62875 27.88625 -27.4375 27.3125 C-25.72473201 24.55717758 -23.58912534 23.27313224 -20.93359375 21.484375 C-18.08754874 19.29953236 -15.92467173 16.65250564 -13.62109375 13.91796875 C-10.61962367 10.36683186 -7.34310584 7.24843446 -3.75 4.3125 C-0.98257806 2.2957678 -0.98257806 2.2957678 0 0 Z " fill="#FBFDFE" transform="translate(339,462)"/>
<path d="M0 0 C18.48 0 36.96 0 56 0 C56.020625 4.99125 56.04125 9.9825 56.0625 15.125 C56.071604 16.68879395 56.08070801 18.25258789 56.09008789 19.86376953 C56.09258545 21.10755371 56.09508301 22.35133789 56.09765625 23.6328125 C56.10289307 24.90012207 56.10812988 26.16743164 56.11352539 27.47314453 C56.00813747 30.747196 55.62450226 33.78889152 55 37 C52.03 37 49.06 37 46 37 C46.70125 37.66 47.4025 38.32 48.125 39 C50.97322665 41.82395199 53.25797333 44.96194609 55.5703125 48.23046875 C57.06218144 50.25711012 57.06218144 50.25711012 60 52 C60.6875 54.125 60.6875 54.125 61 56 C59.60696395 56.13657216 58.20993879 56.23271149 56.8125 56.3125 C56.03519531 56.37050781 55.25789062 56.42851563 54.45703125 56.48828125 C52 56 52 56 47 51 C46.67 60.24 46.34 69.48 46 79 C43.36 79 40.72 79 38 79 C37 78 37 78 36.88647461 75.22436523 C36.89171143 74.01466064 36.89694824 72.80495605 36.90234375 71.55859375 C36.90556641 70.25341797 36.90878906 68.94824219 36.91210938 67.60351562 C36.92046599 66.2148431 36.92893095 64.82617123 36.9375 63.4375 C36.94251334 62.04492344 36.94707653 60.65234519 36.95117188 59.25976562 C36.96300566 55.8398013 36.9794912 52.41992156 37 49 C39.64 49 42.28 49 45 49 C44.505 48.38125 44.01 47.7625 43.5 47.125 C42 45 42 45 42 43 C41.401875 42.731875 40.80375 42.46375 40.1875 42.1875 C38 41 38 41 36.7890625 39.46484375 C33.28028484 36.59193628 28.70863017 37.36377566 24.37890625 37.45703125 C20.85941906 38.02259046 19.80917463 38.35509691 17.625 41.0625 C17.21121094 41.69800781 16.79742188 42.33351563 16.37109375 42.98828125 C14.29144712 46.03961462 11.48001589 48.10391085 8.63671875 50.421875 C6.74042264 52.00633466 6.74042264 52.00633466 6 55 C3.59454362 56.20272819 2.05003047 56.10071472 -0.625 56.0625 C-1.85089844 56.04896484 -1.85089844 56.04896484 -3.1015625 56.03515625 C-3.72804688 56.02355469 -4.35453125 56.01195312 -5 56 C-5 55.34 -5 54.68 -5 54 C-4.34 54 -3.68 54 -3 54 C-2.6596875 53.2265625 -2.6596875 53.2265625 -2.3125 52.4375 C0.67232354 46.89425627 4.43340289 42.30564871 9 38 C6.36 37.67 3.72 37.34 1 37 C-0.02361309 32.78866447 -0.11489283 28.83810136 -0.09765625 24.51171875 C-0.09515869 23.22483154 -0.09266113 21.93794434 -0.09008789 20.61206055 C-0.08098389 18.98695557 -0.07187988 17.36185059 -0.0625 15.6875 C-0.041875 10.510625 -0.02125 5.33375 0 0 Z " fill="#F6FAFD" transform="translate(548,473)"/>
<path d="M0 0 C1.24716797 0.01611328 2.49433594 0.03222656 3.77929688 0.04882812 C5.07287109 0.09072266 6.36644531 0.13261719 7.69921875 0.17578125 C9.01212891 0.19833984 10.32503906 0.22089844 11.67773438 0.24414062 C14.91522005 0.303004 18.15038875 0.38519321 21.38671875 0.48828125 C18.38671875 6.48828125 18.38671875 6.48828125 15.88671875 7.92578125 C13.09516392 9.30147666 13.09516392 9.30147666 12.38671875 12.48828125 C8.94227431 15.48828125 8.94227431 15.48828125 6.38671875 15.48828125 C6.38671875 16.14828125 6.38671875 16.80828125 6.38671875 17.48828125 C4.90171875 17.98328125 4.90171875 17.98328125 3.38671875 18.48828125 C2.04248536 20.1461691 0.71053392 21.81404442 -0.61328125 23.48828125 C-2.27994792 24.82161458 -3.94661458 26.15494792 -5.61328125 27.48828125 C-6.27328125 28.31328125 -6.93328125 29.13828125 -7.61328125 29.98828125 C-9.7164776 32.61727668 -11.99227668 34.3914776 -14.61328125 36.48828125 C-15.27328125 37.31328125 -15.93328125 38.13828125 -16.61328125 38.98828125 C-18.70795671 41.60662557 -20.98418584 43.4276389 -23.61328125 45.48828125 C-24.10828125 46.47828125 -24.10828125 46.47828125 -24.61328125 47.48828125 C-25.60328125 47.48828125 -26.59328125 47.48828125 -27.61328125 47.48828125 C-27.61328125 48.14828125 -27.61328125 48.80828125 -27.61328125 49.48828125 C-29.05089115 50.72529442 -30.49439454 51.95639567 -31.97265625 53.14453125 C-35.73448482 56.22564798 -38.89979931 59.80522561 -42.05078125 63.48828125 C-45.01115625 66.91101416 -48.09214647 69.65606414 -51.61328125 72.48828125 C-52.45890625 73.33390625 -53.30453125 74.17953125 -54.17578125 75.05078125 C-56.53433408 77.40933408 -59.01157791 79.40691858 -61.61328125 81.48828125 C-65.57562707 85.24742985 -69.10844132 89.3089704 -72.61328125 93.48828125 C-75.8369463 92.41372623 -76.43966237 91.78521283 -78.48828125 89.23828125 C-81.0503702 86.1317484 -83.72477213 83.29183421 -86.61328125 80.48828125 C-84.50148222 75.30477454 -80.34165107 72.07704389 -76.11328125 68.61328125 C-73.60279299 66.51577374 -71.78856244 64.46700935 -69.98828125 61.73828125 C-67.85426392 58.54073086 -66.2029051 57.88911007 -62.61328125 56.48828125 C-60.98040304 54.83807807 -59.54118134 53.08698645 -58.078125 51.28515625 C-55.12564573 47.66344834 -51.75794825 44.59056479 -48.17578125 41.61328125 C-45.11203352 39.02803642 -42.56908472 36.22674839 -40.01171875 33.1484375 C-36.3275922 28.77482358 -32.15496858 24.94391291 -27.61328125 21.48828125 C-26.62328125 21.48828125 -25.63328125 21.48828125 -24.61328125 21.48828125 C-24.46632813 20.58722656 -24.46632813 20.58722656 -24.31640625 19.66796875 C-23.46993362 17.04390361 -22.52618062 16.27777338 -20.36328125 14.61328125 C-17.9838744 12.68547611 -15.9124914 10.80959574 -13.98828125 8.42578125 C-7.04588642 -0.16086499 -7.04588642 -0.16086499 0 0 Z " fill="#FAFCFE" transform="translate(410.61328125,461.51171875)"/>
<path d="M0 0 C3.10347722 1.14943601 4.26941338 2.32467766 6.4375 4.9375 C8.89481873 7.87429555 10.77204652 9.09633513 14 11 C15.35386936 12.65002828 16.68678142 14.3174387 18 16 C19.2375 16.99 19.2375 16.99 20.5 18 C23.12899543 20.10319635 24.90319635 22.37899543 27 25 C28.66270287 26.33827304 30.32916181 27.67189785 32 29 C32.7734375 30.0828125 32.7734375 30.0828125 33.5625 31.1875 C34.83946071 33.17569223 34.83946071 33.17569223 37 33.5 C39.79100939 34.19775235 40.54333912 35.59650956 42 38 C42 38.66 42 39.32 42 40 C42.99 40.33 43.98 40.66 45 41 C45 41.66 45 42.32 45 43 C45.78375 43.2475 46.5675 43.495 47.375 43.75 C50.43941457 45.20924503 50.61725761 46.05014956 52 49 C53.3153341 49.70151152 54.65117592 50.36525925 56 51 C57.35308313 52.31328657 58.68870078 53.64499081 60 55 C60.66 55.33 61.32 55.66 62 56 C62 56.99 62 57.98 62 59 C62.60070312 59.09796875 63.20140625 59.1959375 63.8203125 59.296875 C66.44437764 60.14334763 67.21050787 61.08710063 68.875 63.25 C70.8645206 65.72551037 72.79606254 67.75038627 75.3125 69.6875 C78.16867488 72.14513885 78.1866661 72.63047386 79 76 C81.49034386 77.29660434 81.49034386 77.29660434 84 78 C84 78.66 84 79.32 84 80 C84.61875 80.0825 85.2375 80.165 85.875 80.25 C88.67505419 81.23825442 88.74113932 82.40359985 90 85 C90.61875 85.309375 91.2375 85.61875 91.875 85.9375 C94.73291417 87.36645709 96.0756989 89.49196739 98 92 C93.66737174 92.20466631 89.33599716 92.32809533 85 92.4375 C83.16888672 92.52547852 83.16888672 92.52547852 81.30078125 92.61523438 C75.20764161 92.73050999 71.00597437 92.74638107 66.25 88.66015625 C64.18060347 86.52805925 62.65841787 84.4876268 61 82 C60.36835938 81.68675781 59.73671875 81.37351562 59.0859375 81.05078125 C56.59120918 79.79407354 55.3828168 78.34557087 53.625 76.1875 C51.50431083 73.67258015 49.45529025 71.41662141 46.875 69.375 C44.65581531 67.54176048 43.17330955 66.0812626 41.4375 63.875 C39.08262529 61.09745547 37.09368403 59.80464902 34 58 C33.67 57.01 33.34 56.02 33 55 C30.99983534 53.79117904 30.99983534 53.79117904 29 53 C29 52.34 29 51.68 29 51 C28.21625 50.7525 27.4325 50.505 26.625 50.25 C23.56058543 48.79075497 23.38274239 47.94985044 22 45 C21.34 44.690625 20.68 44.38125 20 44.0625 C17.2531036 42.60321129 17.12847918 40.82119796 16 38 C13.99983534 36.79117904 13.99983534 36.79117904 12 36 C11.67 35.34 11.34 34.68 11 34 C10.175 33.525625 9.35 33.05125 8.5 32.5625 C6 31 6 31 5 28 C4.113125 27.5875 3.22625 27.175 2.3125 26.75 C-1.32590257 24.82782506 -3.01528801 22.86667957 -5.54296875 19.71875 C-7.44849203 17.47094774 -9.63245925 15.74083879 -12 14 C-11.875 12.25 -11.875 12.25 -11 10 C-9.01399663 8.6459068 -7.01182457 7.31542376 -5 6 C-3.18107456 4.08682972 -1.61770098 2.09349538 0 0 Z " fill="#F9FCFE" transform="translate(336,577)"/>
<path d="M0 0 C18.81 0 37.62 0 57 0 C57.020625 5.1975 57.04125 10.395 57.0625 15.75 C57.071604 17.38420898 57.08070801 19.01841797 57.09008789 20.70214844 C57.09258545 21.9915332 57.09508301 23.28091797 57.09765625 24.609375 C57.10289307 25.92905273 57.10812988 27.24873047 57.11352539 28.60839844 C57 32 57 32 56 36 C37.85 36 19.7 36 1 36 C0.22518312 31.35109874 -0.11753001 27.50202172 -0.09765625 22.8515625 C-0.09515869 21.64838379 -0.09266113 20.44520508 -0.09008789 19.20556641 C-0.08098389 17.69397949 -0.07187988 16.18239258 -0.0625 14.625 C-0.041875 9.79875 -0.02125 4.9725 0 0 Z " fill="#F1F8FC" transform="translate(638,516)"/>
<path d="M0 0 C17.82 0 35.64 0 54 0 C54.020625 5.424375 54.04125 10.84875 54.0625 16.4375 C54.071604 18.15122803 54.08070801 19.86495605 54.09008789 21.63061523 C54.09300716 22.98160727 54.09555569 24.33260019 54.09765625 25.68359375 C54.10277222 26.39100708 54.10788818 27.09842041 54.11315918 27.82727051 C54.11347032 29.55192617 54.06225761 31.27646838 54 33 C53 34 53 34 50.90562439 34.12025452 C49.98407059 34.11803391 49.06251678 34.11581329 48.11303711 34.11352539 C47.07203354 34.11344986 46.03102997 34.11337433 44.95848083 34.11329651 C43.8262056 34.10813522 42.69393036 34.10297394 41.52734375 34.09765625 C40.37456436 34.0962413 39.22178497 34.09482635 38.03407288 34.09336853 C34.33518936 34.08775005 30.63636536 34.07519442 26.9375 34.0625 C24.43684983 34.05748738 21.93619871 34.05292406 19.43554688 34.04882812 C13.29034412 34.03777462 7.14517631 34.02101852 1 34 C-0.02178655 30.26965509 -0.11409211 26.92573724 -0.09765625 23.046875 C-0.09515869 21.83870117 -0.09266113 20.63052734 -0.09008789 19.38574219 C-0.08098389 17.85594727 -0.07187988 16.32615234 -0.0625 14.75 C-0.041875 9.8825 -0.02125 5.015 0 0 Z " fill="#F7FBFD" transform="translate(459,473)"/>
<path d="M0 0 C21.78 0 43.56 0 66 0 C66.04010881 18.347552 66.04010881 18.347552 66.04882812 26.15820312 C66.05480982 31.49130242 66.06189224 36.82438457 66.07543945 42.1574707 C66.08629125 46.4562823 66.09228172 50.75507553 66.09487724 55.05389977 C66.09672734 56.6953733 66.10034004 58.33684581 66.10573006 59.97831154 C66.11297088 62.27438164 66.11398965 64.57037543 66.11352539 66.86645508 C66.115746 68.17439529 66.11796661 69.48233551 66.12025452 70.82991028 C66 74 66 74 65 77 C60.38 77 55.76 77 51 77 C49 73 49 73 49 69 C51.64 69 54.28 69 57 69 C57 48.87 57 28.74 57 8 C40.83 8 24.66 8 8 8 C8 31.1 8 54.2 8 78 C5.36 78 2.72 78 0 78 C0 52.26 0 26.52 0 0 Z " fill="#F2F8FD" transform="translate(813,474)"/>
<path d="M0 0 C2.64 0 5.28 0 8 0 C7.67 1.98 7.34 3.96 7 6 C12.28 6 17.56 6 23 6 C23 4.35 23 2.7 23 1 C25.64 1 28.28 1 31 1 C31 2.65 31 4.3 31 6 C38.59 6 46.18 6 54 6 C53.67 8.64 53.34 11.28 53 14 C45.74 14 38.48 14 31 14 C31 15.98 31 17.96 31 20 C37.6 20 44.2 20 51 20 C50 27 50 27 49 28 C47.65732587 28.08631874 46.31025678 28.10706473 44.96484375 28.09765625 C44.15595703 28.09443359 43.34707031 28.09121094 42.51367188 28.08789062 C41.66353516 28.07951172 40.81339844 28.07113281 39.9375 28.0625 C39.08349609 28.05798828 38.22949219 28.05347656 37.34960938 28.04882812 C35.23304337 28.03700373 33.11651315 28.01906769 31 28 C31 29.65 31 31.3 31 33 C40.24 33 49.48 33 59 33 C58.67 35.97 58.34 38.94 58 42 C37.54 42 17.08 42 -4 42 C-4.33 39.03 -4.66 36.06 -5 33 C3.91 33 12.82 33 22 33 C22 31.35 22 29.7 22 28 C16.39 28 10.78 28 5 28 C4 26 4 26 4 20 C10.27 20 16.54 20 23 20 C23 18.02 23 16.04 23 14 C16.73 14 10.46 14 4 14 C4 15.32 4 16.64 4 18 C3.34 18 2.68 18 2 18 C1.67 19.98 1.34 21.96 1 24 C-1.64 24 -4.28 24 -7 24 C-7 23.01 -7 22.02 -7 21 C-6.34 21 -5.68 21 -5 21 C-4.89042969 20.23816406 -4.78085937 19.47632813 -4.66796875 18.69140625 C-3.66551378 12.16322389 -2.27363487 6.20082237 0 0 Z " fill="#E6F3FA" transform="translate(460,510)"/>
<path d="M0 0 C13.2 0 26.4 0 40 0 C40 10.89 40 21.78 40 33 C39.34 33 38.68 33 38 33 C38 34.32 38 35.64 38 37 C25.79 37 13.58 37 1 37 C0.11700077 32.58500383 -0.11545839 28.98005512 -0.09765625 24.51171875 C-0.09515869 23.22483154 -0.09266113 21.93794434 -0.09008789 20.61206055 C-0.08098389 18.98695557 -0.07187988 17.36185059 -0.0625 15.6875 C-0.041875 10.510625 -0.02125 5.33375 0 0 Z " fill="#F0F8FD" transform="translate(928,515)"/>
<path d="M0 0 C14.19 0 28.38 0 43 0 C42.67 2.97 42.34 5.94 42 9 C31.11 9 20.22 9 9 9 C9 27.81 9 46.62 9 66 C19.89 66 30.78 66 42 66 C42 68.97 42 71.94 42 75 C28.47 75 14.94 75 1 75 C0.14676441 70.73382207 -0.12128529 67.31333436 -0.11352539 63.0065918 C-0.11374443 61.98137169 -0.11374443 61.98137169 -0.1139679 60.93544006 C-0.11327462 58.68999999 -0.10550974 56.44464423 -0.09765625 54.19921875 C-0.09578999 52.63694809 -0.09436707 51.07467685 -0.09336853 49.5124054 C-0.08955972 45.41069916 -0.07974346 41.30902861 -0.06866455 37.20733643 C-0.05661155 32.28052254 -0.0520404 27.35369668 -0.04621124 22.42687225 C-0.03653079 14.95122338 -0.01736281 7.47565275 0 0 Z " fill="#F8FBFD" transform="translate(747,475)"/>
<path d="M0 0 C10.23 0 20.46 0 31 0 C31.0309375 7.2084375 31.0309375 7.2084375 31.0625 14.5625 C31.071604 16.06498291 31.08070801 17.56746582 31.09008789 19.11547852 C31.09258545 20.31615967 31.09508301 21.51684082 31.09765625 22.75390625 C31.10551147 24.58417358 31.10551147 24.58417358 31.11352539 26.45141602 C31 30 31 30 30 37 C20.76 37 11.52 37 2 37 C2 35.35 2 33.7 2 32 C1.34 32 0.68 32 0 32 C0 21.44 0 10.88 0 0 Z " fill="#FCFDFE" transform="translate(669,477)"/>
<path d="M0 0 C5.28 0 10.56 0 16 0 C16.33 7.26 16.66 14.52 17 22 C19.475 16.555 19.475 16.555 22 11 C22.66 11 23.32 11 24 11 C24.433125 9.1128125 24.433125 9.1128125 24.875 7.1875 C25.57303539 4.1460601 26.20446585 2.69330122 28 0 C30.3828125 -0.29296875 30.3828125 -0.29296875 33.125 -0.1875 C34.03507813 -0.16042969 34.94515625 -0.13335938 35.8828125 -0.10546875 C36.58148437 -0.07066406 37.28015625 -0.03585937 38 0 C37.54554036 1.41791408 37.08625056 2.83428046 36.625 4.25 C36.24214844 5.43335938 36.24214844 5.43335938 35.8515625 6.640625 C35.04826333 8.86627958 34.10288338 10.90931672 33 13 C32.34 13 31.68 13 31 13 C30.82984375 13.61746094 30.6596875 14.23492188 30.484375 14.87109375 C28.77814576 20.8338204 26.66418883 26.40114631 24 32 C23.34 32 22.68 32 22 32 C21.34 34.31 20.68 36.62 20 39 C16.37 39 12.74 39 9 39 C8.505 27.615 8.505 27.615 8 16 C7.01 18.475 7.01 18.475 6 21 C5.34 21 4.68 21 4 21 C3.82984375 21.54527344 3.6596875 22.09054687 3.484375 22.65234375 C1.67124766 28.29425594 -0.52205144 33.61687037 -3 39 C-6.96 39 -10.92 39 -15 39 C-14.67 38.01 -14.34 37.02 -14 36 C-13.34 36 -12.68 36 -12 36 C-11.89816406 35.16210938 -11.79632812 34.32421875 -11.69140625 33.4609375 C-10.91875555 29.59331876 -9.5456453 26.19948538 -7.9375 22.625 C-7.65583984 21.98433594 -7.37417969 21.34367188 -7.08398438 20.68359375 C-6.39540579 19.11970341 -5.69855289 17.55946059 -5 16 C-4.34 16 -3.68 16 -3 16 C-2.79503906 15.38511719 -2.59007812 14.77023437 -2.37890625 14.13671875 C-1.25260417 10.7578125 -0.12630208 7.37890625 1 4 C0.67 2.68 0.34 1.36 0 0 Z " fill="#F3F9FC" transform="translate(710,617)"/>
<path d="M0 0 C3.3 0 6.6 0 10 0 C10 0.99 10 1.98 10 3 C17.59 3.33 25.18 3.66 33 4 C33 8.29 33 12.58 33 17 C32.01 17.33 31.02 17.66 30 18 C29.71125 18.61875 29.4225 19.2375 29.125 19.875 C27.64041877 22.67920898 25.76025753 23.54723288 23 25 C23.54777277 28.73630086 24.91155485 30.10705613 27.8125 32.4375 C30.96195357 35.06110225 33.57534399 37.66609798 36 41 C26.42344045 41.56332703 26.42344045 41.56332703 22 38 C20.33333333 36.33333333 18.66666667 34.66666667 17 33 C15.515 32.505 15.515 32.505 14 32 C12.31295807 33.30745749 10.64639965 34.64172029 9 36 C8.01 36 7.02 36 6 36 C5.71125 36.639375 5.4225 37.27875 5.125 37.9375 C4 40 4 40 2 41 C0.29297265 41.06996014 -1.41668003 41.08440154 -3.125 41.0625 C-4.03507813 41.05347656 -4.94515625 41.04445313 -5.8828125 41.03515625 C-6.58148437 41.02355469 -7.28015625 41.01195312 -8 41 C-5.74493971 36.48987941 -3.21169915 34.67280908 1 32 C3.3863442 30.05929839 5.69973446 28.0416558 8 26 C7.443125 25.443125 6.88625 24.88625 6.3125 24.3125 C5.549375 23.549375 4.78625 22.78625 4 22 C3.0925 21.113125 2.185 20.22625 1.25 19.3125 C-1 17 -1 17 -1 16 C0.93627769 15.89192869 2.87427756 15.8143775 4.8125 15.75 C6.43091797 15.68039062 6.43091797 15.68039062 8.08203125 15.609375 C11 16 11 16 12.69921875 18.015625 C13.12847656 18.67046875 13.55773437 19.3253125 14 20 C14.99 20 15.98 20 17 20 C19.06102121 17.67398476 19.06102121 17.67398476 21 15 C21.98686735 13.9870376 22.98425494 12.98400303 24 12 C20.54099522 12.1095693 17.08310891 12.24026848 13.625 12.375 C12.64015625 12.4059375 11.6553125 12.436875 10.640625 12.46875 C9.69960938 12.50742187 8.75859375 12.54609375 7.7890625 12.5859375 C6.91975098 12.6173584 6.05043945 12.6487793 5.15478516 12.68115234 C2.79038206 12.81229433 2.79038206 12.81229433 1 15 C-2.01826653 15.27240673 -4.96370622 15.08675125 -8 15 C-6.35 11.37 -4.7 7.74 -3 4 C-2.34 4 -1.68 4 -1 4 C-0.67 2.68 -0.34 1.36 0 0 Z " fill="#F5FAFD" transform="translate(933,471)"/>
<path d="M0 0 C2.31 0 4.62 0 7 0 C6.67 1.98 6.34 3.96 6 6 C12.6 6 19.2 6 26 6 C25.67 8.64 25.34 11.28 25 14 C21.7 14 18.4 14 15 14 C15 16.64 15 19.28 15 22 C19.29 22 23.58 22 28 22 C27.67 24.64 27.34 27.28 27 30 C24.03 30.33 21.06 30.66 18 31 C19.485 32.485 19.485 32.485 21 34 C21 34.66 21 35.32 21 36 C21.66 36 22.32 36 23 36 C24.2890625 37.53125 24.2890625 37.53125 25.625 39.5 C26.07101562 40.1496875 26.51703125 40.799375 26.9765625 41.46875 C27.31429687 41.9740625 27.65203125 42.479375 28 43 C20.03424015 43.78095685 20.03424015 43.78095685 15.9375 40.6875 C14 38 14 38 14 35 C11.62766389 35.03780298 11.62766389 35.03780298 9 36 C6.78831775 38.94236782 6.78831775 38.94236782 5 42 C2.59454362 43.20272819 1.05003047 43.10071472 -1.625 43.0625 C-2.85089844 43.04896484 -2.85089844 43.04896484 -4.1015625 43.03515625 C-4.72804688 43.02355469 -5.35453125 43.01195312 -6 43 C-5.401875 42.443125 -4.80375 41.88625 -4.1875 41.3125 C-1.9279378 39.09834882 -1.9279378 39.09834882 -0.5 36.4375 C1 34 1 34 5 31 C1.37 30.67 -2.26 30.34 -6 30 C-6.33 27.36 -6.66 24.72 -7 22 C-2.05 22 2.9 22 8 22 C8 19.36 8 16.72 8 14 C6.02 14 4.04 14 2 14 C1.67 15.98 1.34 17.96 1 20 C-1.31 20 -3.62 20 -6 20 C-6 19.01 -6 18.02 -6 17 C-5.34 17 -4.68 17 -4 17 C-3.94392578 16.1646875 -3.94392578 16.1646875 -3.88671875 15.3125 C-3.40439364 9.71374576 -2.16758121 5.18334636 0 0 Z " fill="#F1F8FC" transform="translate(639,471)"/>
<path d="M0 0 C4.29 0 8.58 0 13 0 C12.67 3.63 12.34 7.26 12 11 C11.01 11.33 10.02 11.66 9 12 C9 13.98 9 15.96 9 18 C9.66 18 10.32 18 11 18 C11.226875 17.21625 11.45375 16.4325 11.6875 15.625 C16.18181818 3.21212121 16.18181818 3.21212121 21 0 C23.04296875 -0.1953125 23.04296875 -0.1953125 25.1875 -0.125 C27.0746875 -0.063125 27.0746875 -0.063125 29 0 C29 1.32 29 2.64 29 4 C28.34 4 27.68 4 27 4 C26.67 7.96 26.34 11.92 26 16 C26.99 15.67 27.98 15.34 29 15 C29.38265843 13.67997674 29.70554117 12.34245405 30 11 C30.92628935 9.24194063 31.90994945 7.51335996 32.9375 5.8125 C33.46214844 4.93207031 33.98679687 4.05164063 34.52734375 3.14453125 C36 1 36 1 38 0 C39.54023996 -0.06950541 41.08334988 -0.08452357 42.625 -0.0625 C43.85089844 -0.04896484 43.85089844 -0.04896484 45.1015625 -0.03515625 C45.72804688 -0.02355469 46.35453125 -0.01195312 47 0 C47 0.66 47 1.32 47 2 C46.34 2.33 45.68 2.66 45 3 C44.11144208 4.40403544 43.28589705 5.84852714 42.5 7.3125 C42.0771875 8.09238281 41.654375 8.87226562 41.21875 9.67578125 C40.44615178 11.14916568 39.7014345 12.63779168 38.99609375 14.14453125 C38 16 38 16 35.5625 18.375 C32.4924373 21.25318609 32.4924373 21.25318609 30 27 C25.38 27 20.76 27 16 27 C16 24.69 16 22.38 16 20 C15.525625 20.969375 15.05125 21.93875 14.5625 22.9375 C13 26 13 26 12 27 C9.64686445 27.07271741 7.29166332 27.08370868 4.9375 27.0625 C3.64714844 27.05347656 2.35679687 27.04445313 1.02734375 27.03515625 C0.02832031 27.02355469 -0.97070312 27.01195312 -2 27 C-1.47462276 21.9697924 -0.89405214 16.98114761 0 12 C0.66 12 1.32 12 2 12 C2 8.37 2 4.74 2 1 C1.34 0.67 0.68 0.34 0 0 Z " fill="#F3F9FD" transform="translate(813,629)"/>
<path d="M0 0 C3.96 0 7.92 0 12 0 C12.66 1.98 13.32 3.96 14 6 C14.36609375 5.566875 14.7321875 5.13375 15.109375 4.6875 C17.99976095 1.7145316 19.9314407 0.13573231 24.13671875 -0.3984375 C27.11134924 -0.37731586 30.03742374 -0.26269149 33 0 C29.87145146 6.64280855 24.58680534 11.65609344 19.26953125 16.61328125 C17.27553129 20.36200118 18.42738299 23.54386528 19.3125 27.5625 C21 35.83333333 21 35.83333333 21 39 C17.7 39 14.4 39 11 39 C9.515 34.545 9.515 34.545 8 30 C4.22697354 32.74006005 4.22697354 32.74006005 1.78125 36.625 C0 39 0 39 -3.35546875 39.48828125 C-4.62003906 39.43027344 -5.88460938 39.37226562 -7.1875 39.3125 C-8.45980469 39.26738281 -9.73210937 39.22226562 -11.04296875 39.17578125 C-12.50669922 39.08876953 -12.50669922 39.08876953 -14 39 C-12.7234698 35.19632879 -11.44946919 33.17119073 -8.3125 30.6875 C-0.7425558 24.38359862 -0.7425558 24.38359862 4 16 C3.49809475 13.14142946 3.49809475 13.14142946 2.625 10.0625 C2.34914063 9.02222656 2.07328125 7.98195313 1.7890625 6.91015625 C1.39847656 5.46962891 1.39847656 5.46962891 1 4 C0.67 2.68 0.34 1.36 0 0 Z " fill="#F4FAFD" transform="translate(474,617)"/>
<path d="M0 0 C2.64 0 5.28 0 8 0 C8.35735254 5.52109677 7.04354721 10.14362647 5.5 15.375 C5.14228516 16.62216797 5.14228516 16.62216797 4.77734375 17.89453125 C4.19194303 19.93172576 3.5969355 21.96615549 3 24 C2.34 24 1.68 24 1 24 C1 24.99 1 25.98 1 27 C2.65 27 4.3 27 6 27 C6.144375 26.030625 6.28875 25.06125 6.4375 24.0625 C7 21 7 21 8 20 C11.00331018 19.85806663 13.99217134 19.95763622 17 20 C15.35 24.95 13.7 29.9 12 35 C11.34 35 10.68 35 10 35 C9.9071875 36.5778125 9.9071875 36.5778125 9.8125 38.1875 C9.06558259 44.46839638 6.39691228 50.19788023 4 56 C7.3 56 10.6 56 14 56 C13.67 58.31 13.34 60.62 13 63 C6.73 63 0.46 63 -6 63 C-5.34462743 59.06776458 -4.6847357 55.5941954 -3.58984375 51.8203125 C-3.32236328 50.8921875 -3.05488281 49.9640625 -2.77929688 49.0078125 C-2.50150391 48.05648437 -2.22371094 47.10515625 -1.9375 46.125 C-1.65583984 45.15046875 -1.37417969 44.1759375 -1.08398438 43.171875 C-0.39232631 40.78037933 0.303429 38.3900693 1 36 C-2.3 36 -5.6 36 -9 36 C-8.505 33.03 -8.505 33.03 -8 30 C-7.34 30 -6.68 30 -6 30 C-5.87625 28.71996094 -5.7525 27.43992187 -5.625 26.12109375 C-5.05817133 21.02662131 -4.08375287 16.06896707 -3 11.0625 C-2.73316406 9.78922852 -2.73316406 9.78922852 -2.4609375 8.49023438 C-1.13455704 2.26911408 -1.13455704 2.26911408 0 0 Z " fill="#F1F8FD" transform="translate(911,471)"/>
<path d="M0 0 C0.95777344 -0.01160156 1.91554688 -0.02320313 2.90234375 -0.03515625 C3.81628906 -0.03128906 4.73023438 -0.02742187 5.671875 -0.0234375 C6.91855957 -0.01836182 6.91855957 -0.01836182 8.19042969 -0.01318359 C8.87008789 0.11491699 9.54974609 0.24301758 10.25 0.375 C12.25 3.375 12.25 3.375 12.03515625 5.69921875 C11.16018605 8.68108235 10.00886156 11.37537156 8.6875 14.1875 C8.23246094 15.16332031 7.77742187 16.13914062 7.30859375 17.14453125 C6.95925781 17.88058594 6.60992188 18.61664062 6.25 19.375 C5.59 19.375 4.93 19.375 4.25 19.375 C4.0025 20.32375 3.755 21.2725 3.5 22.25 C2.25 25.375 2.25 25.375 0.49707031 26.55810547 C-2.1292378 27.5128672 -4.16132487 27.60277529 -6.953125 27.5703125 C-8.42265625 27.56064453 -8.42265625 27.56064453 -9.921875 27.55078125 C-10.93765625 27.53402344 -11.9534375 27.51726563 -13 27.5 C-14.03125 27.49097656 -15.0625 27.48195313 -16.125 27.47265625 C-18.66690287 27.44912011 -21.2083328 27.41624023 -23.75 27.375 C-25.02678571 19.72321429 -25.02678571 19.72321429 -22.75 16.375 C-22.09 16.375 -21.43 16.375 -20.75 16.375 C-20.646875 15.715 -20.54375 15.055 -20.4375 14.375 C-19.88341365 11.95716865 -19.30413539 9.61450814 -18.5625 7.25 C-18.36269531 6.58742188 -18.16289063 5.92484375 -17.95703125 5.2421875 C-14.01060817 -0.86263526 -6.4111442 -0.07893338 0 0 Z " fill="#F6FAFD" transform="translate(880.75,628.625)"/>
<path d="M0 0 C4.29154022 -0.0867562 8.58285668 -0.1403089 12.875 -0.1875 C14.70998047 -0.22520508 14.70998047 -0.22520508 16.58203125 -0.26367188 C18.33193359 -0.27817383 18.33193359 -0.27817383 20.1171875 -0.29296875 C21.73536377 -0.31653442 21.73536377 -0.31653442 23.38623047 -0.34057617 C24.68004639 -0.17199097 24.68004639 -0.17199097 26 0 C28 3 28 3 27.8125 5.25 C26.80660001 8.65458459 25.45959132 11.76351489 24 15 C23.34 15 22.68 15 22 15 C21.67 16.32 21.34 17.64 21 19 C22.32 19.66 23.64 20.32 25 21 C24.67 21.99 24.34 22.98 24 24 C23.34 24 22.68 24 22 24 C22 24.66 22 25.32 22 26 C17.54178834 26.08674429 13.08379196 26.14030513 8.625 26.1875 C7.35398437 26.21263672 6.08296875 26.23777344 4.7734375 26.26367188 C3.56171875 26.27333984 2.35 26.28300781 1.1015625 26.29296875 C-0.01911621 26.3086792 -1.13979492 26.32438965 -2.29443359 26.34057617 C-3.18727051 26.22818604 -4.08010742 26.1157959 -5 26 C-7 23 -7 23 -6.6875 20.4375 C-6 18 -6 18 -5 16 C-4.34 16 -3.68 16 -3 16 C-2.48611148 14.65104264 -1.98967278 13.29543517 -1.5 11.9375 C-1.2215625 11.18339844 -0.943125 10.42929687 -0.65625 9.65234375 C0.1534654 6.37974399 0.09864115 3.35790905 0 0 Z " fill="#F7FBFD" transform="translate(611,630)"/>
<path d="M0 0 C2.64 0 5.28 0 8 0 C9.35439668 2.70879335 9.06501451 5.00933268 9 8 C9.66 8 10.32 8 11 8 C10.979375 7.05125 10.95875 6.1025 10.9375 5.125 C11 2 11 2 12 0 C14.64 0 17.28 0 20 0 C19.40984815 5.50808397 18.43336231 10.64878069 17 16 C16.34 16 15.68 16 15 16 C15 22.93 15 29.86 15 37 C15.66 37 16.32 37 17 37 C17.50509208 39.24886238 18.00389179 41.49913869 18.5 43.75 C18.7784375 45.00296875 19.056875 46.2559375 19.34375 47.546875 C20 51 20 51 20 55 C17.69 55 15.38 55 13 55 C11.515 49.555 11.515 49.555 10 44 C9.01 46.475 9.01 46.475 8 49 C7.34 49 6.68 49 6 49 C6 50.98 6 52.96 6 55 C4.02 55 2.04 55 0 55 C0.44873803 49.97413407 1.14808788 45.10227651 2.14501953 40.15258789 C4.60156635 27.85405145 3.96647816 18.71375669 0.875 6.66015625 C0 3 0 3 0 0 Z " fill="#F3F9FD" transform="translate(825,485)"/>
<path d="M0 0 C4.95 0 9.9 0 15 0 C14.67 1.32 14.34 2.64 14 4 C13.34 4 12.68 4 12 4 C11.49632243 5.45706726 10.99717444 6.91570096 10.5 8.375 C10.2215625 9.18710937 9.943125 9.99921875 9.65625 10.8359375 C8.90326695 12.94209242 8.90326695 12.94209242 9 15 C9.35707031 14.50886719 9.71414063 14.01773438 10.08203125 13.51171875 C12.90553095 11.28627194 15.15218954 11.70749078 18.6875 11.8125 C20.45673828 11.85310547 20.45673828 11.85310547 22.26171875 11.89453125 C23.16535156 11.92933594 24.06898438 11.96414063 25 12 C22.14202116 15.75109723 19.67843081 18.28183872 15.6875 20.8125 C13.15728853 22.59266754 12.14666315 23.31818427 11.48828125 26.37890625 C11.49889366 28.63934912 11.64313088 30.769568 12 33 C12.66 33 13.32 33 14 33 C14 34.98 14 36.96 14 39 C11.03 39 8.06 39 5 39 C5 38.34 5 37.68 5 37 C4.34 37 3.68 37 3 37 C2.67 34.36 2.34 31.72 2 29 C1.34 29 0.68 29 0 29 C-0.20496094 29.63808594 -0.40992188 30.27617188 -0.62109375 30.93359375 C-0.89050781 31.75988281 -1.15992188 32.58617187 -1.4375 33.4375 C-1.70433594 34.26121094 -1.97117187 35.08492187 -2.24609375 35.93359375 C-3 38 -3 38 -4 39 C-5.51928038 39.07179964 -7.04167482 39.08392007 -8.5625 39.0625 C-9.38878906 39.05347656 -10.21507812 39.04445313 -11.06640625 39.03515625 C-11.70449219 39.02355469 -12.34257813 39.01195312 -13 39 C-11.58495328 32.18204762 -9.01578157 26.26177547 -6 20 C-5.34 20 -4.68 20 -4 20 C-3.80664062 19.40832031 -3.61328125 18.81664062 -3.4140625 18.20703125 C-3.15367187 17.41683594 -2.89328125 16.62664063 -2.625 15.8125 C-2.35429688 14.9875 -2.08359375 14.1625 -1.8046875 13.3125 C-1 11 -1 11 0.25 8.3125 C1.37937135 5.43532355 1.37937135 5.43532355 0 0 Z " fill="#F1F8FD" transform="translate(936,617)"/>
<path d="M0 0 C2.64 0 5.28 0 8 0 C9.35439668 2.70879335 9.06501451 5.00933268 9 8 C9.66 8 10.32 8 11 8 C11 6.02 11 4.04 11 2 C11.66 2 12.32 2 13 2 C13 1.34 13 0.68 13 0 C15.31 0 17.62 0 20 0 C19.73246805 1.542243 19.46066204 3.08374424 19.1875 4.625 C19.01089844 5.62789063 18.83429687 6.63078125 18.65234375 7.6640625 C18.20674744 9.94274065 17.69562164 12.20932389 17.12890625 14.4609375 C15.14249033 22.45957226 14.97617009 28.07333286 17 36 C17.55440144 38.64406841 18.09553118 41.2885592 18.625 43.9375 C18.88539063 45.18402344 19.14578125 46.43054688 19.4140625 47.71484375 C20 51 20 51 20 55 C18.02 55 16.04 55 14 55 C13.67 52.03 13.34 49.06 13 46 C12.34 46 11.68 46 11 46 C10.67 45.34 10.34 44.68 10 44 C8.38935371 47.65079826 7.55105909 51.0507432 7 55 C4.69 55 2.38 55 0 55 C0.14230808 53.58297487 0.28900746 52.1663904 0.4375 50.75 C0.51871094 49.96109375 0.59992187 49.1721875 0.68359375 48.359375 C0.97634993 46.17635361 1.42064419 44.1226818 2 42 C2.66 42 3.32 42 4 42 C3.979375 40.948125 3.95875 39.89625 3.9375 38.8125 C4 35 4 35 4.5 32.6875 C5.77416121 25.83888351 5.01295651 18.83745646 4 12 C3.34 12 2.68 12 2 12 C1.34 8.04 0.68 4.08 0 0 Z " fill="#F3F9FD" transform="translate(847,485)"/>
<path d="M0 0 C10.23 0 20.46 0 31 0 C30.01 1.98 29.02 3.96 28 6 C18.1 6.495 18.1 6.495 8 7 C8.78069451 12.46486155 9.26593193 15.11760629 11.5625 19.75 C14 24.69405099 14 24.69405099 14 28 C14.66 28 15.32 28 16 28 C16 29.65 16 31.3 16 33 C15.01 33.495 15.01 33.495 14 34 C13.34 35.65 12.68 37.3 12 39 C1.77 39 -8.46 39 -19 39 C-18.34 36.69 -17.68 34.38 -17 32 C-10.07 32 -3.14 32 4 32 C3.14852156 27.74260781 2.03792418 24.31128063 0.4375 20.3125 C-2 14.21529745 -2 14.21529745 -2 12 C-2.99 11.67 -3.98 11.34 -5 11 C-4.67 9.02 -4.34 7.04 -4 5 C-3.34 5 -2.68 5 -2 5 C-1.34 3.35 -0.68 1.7 0 0 Z " fill="#F6FBFD" transform="translate(547,617)"/>
<path d="M0 0 C9.24 0 18.48 0 28 0 C29.13803833 7.96626831 28.40930293 9.28470635 25 16 C19.06 16 13.12 16 7 16 C6.67 17.32 6.34 18.64 6 20 C10.95 20.33 15.9 20.66 21 21 C20 26 20 26 19 27 C15.38267908 27.2794933 11.75183739 27.23179755 8.125 27.25 C6.59552734 27.2809375 6.59552734 27.2809375 5.03515625 27.3125 C4.05675781 27.31765625 3.07835937 27.3228125 2.0703125 27.328125 C1.17070801 27.3374707 0.27110352 27.34681641 -0.65576172 27.35644531 C-3 27 -3 27 -4.83642578 25.67871094 C-6 24 -6 24 -5.6875 20.8125 C-5.460625 19.884375 -5.23375 18.95625 -5 18 C-4.34 18 -3.68 18 -3 18 C0.54522932 9.13884494 0.54522932 9.13884494 0 0 Z " fill="#F9FCFD" transform="translate(746,629)"/>
<path d="M0 0 C7.92 0 15.84 0 24 0 C24 7.26 24 14.52 24 22 C16.08 22 8.16 22 0 22 C0 14.74 0 7.48 0 0 Z " fill="#0389E1" transform="translate(936,523)"/>
<path d="M0 0 C3.3 0 6.6 0 10 0 C9.67 1.65 9.34 3.3 9 5 C11.31 5.33 13.62 5.66 16 6 C15.34 7.98 14.68 9.96 14 12 C10.7 12 7.4 12 4 12 C3.81824219 12.71027344 3.63648438 13.42054688 3.44921875 14.15234375 C3.19785156 15.07144531 2.94648437 15.99054687 2.6875 16.9375 C2.44386719 17.85402344 2.20023438 18.77054688 1.94921875 19.71484375 C1.63597656 20.46894531 1.32273437 21.22304688 1 22 C0.01 22.33 -0.98 22.66 -2 23 C-2 23.99 -2 24.98 -2 26 C1.63 26.33 5.26 26.66 9 27 C9 27.99 9 28.98 9 30 C8.34 30 7.68 30 7 30 C6.67 30.99 6.34 31.98 6 33 C1.05 33 -3.9 33 -9 33 C-9 32.34 -9 31.68 -9 31 C-9.66 31 -10.32 31 -11 31 C-12.125 24.375 -12.125 24.375 -11 21 C-10.34 21 -9.68 21 -9 21 C-8.814375 19.88625 -8.814375 19.88625 -8.625 18.75 C-8.04513299 16.19858515 -7.26291261 14.2732427 -6 12 C-8.64 12 -11.28 12 -14 12 C-13.49396008 9.83125748 -13.00016187 8.00032373 -12 6 C-8.7 6 -5.4 6 -2 6 C-2 5.01 -2 4.02 -2 3 C-1.34 3 -0.68 3 0 3 C0 2.01 0 1.02 0 0 Z " fill="#F5FAFD" transform="translate(590,623)"/>
<path d="M0 0 C3.3 0 6.6 0 10 0 C9.67 1.65 9.34 3.3 9 5 C11.64 5.33 14.28 5.66 17 6 C16.34 7.98 15.68 9.96 15 12 C11.7 12 8.4 12 5 12 C4.67 13.32 4.34 14.64 4 16 C3.34 16 2.68 16 2 16 C1.690625 17.093125 1.38125 18.18625 1.0625 19.3125 C0.41662103 21.55407994 -0.2623117 23.7869351 -1 26 C2.3 26.33 5.6 26.66 9 27 C8.125 31.875 8.125 31.875 7 33 C4.30345146 33.07319621 1.63308542 33.09242537 -1.0625 33.0625 C-2.20041992 33.05573242 -2.20041992 33.05573242 -3.36132812 33.04882812 C-5.24091871 33.0370068 -7.12046899 33.01907078 -9 33 C-11.25656267 27.89441805 -11.22706774 24.31308289 -9.2578125 18.99609375 C-8.5440724 17.31370637 -7.77652895 15.65434429 -7 14 C-6.34 14 -5.68 14 -5 14 C-5 13.34 -5 12.68 -5 12 C-7.64 12 -10.28 12 -13 12 C-12.49396008 9.83125748 -12.00016187 8.00032373 -11 6 C-7.7 6 -4.4 6 -1 6 C-0.67 4.02 -0.34 2.04 0 0 Z " fill="#F6FBFD" transform="translate(793,623)"/>
<path d="M0 0 C0.66 0 1.32 0 2 0 C3.13764351 4.26616316 4 7.56486311 4 12 C4.66 12 5.32 12 6 12 C9.07097017 22.36452433 8.02479391 31.47830308 6 42 C5.34 42 4.68 42 4 42 C3.7834375 43.546875 3.7834375 43.546875 3.5625 45.125 C3.08339543 48.42549813 2.56124917 51.71268341 2 55 C1.34 55 0.68 55 0 55 C-0.50904657 53.12743583 -1.00682455 51.25180659 -1.5 49.375 C-1.7784375 48.33085938 -2.056875 47.28671875 -2.34375 46.2109375 C-2.99118596 43.04312582 -3.1161292 40.22258533 -3 37 C-3.66 37 -4.32 37 -5 37 C-6.01534595 33.6396884 -6.13383137 30.56413714 -6.125 27.0625 C-6.12757813 26.04285156 -6.13015625 25.02320313 -6.1328125 23.97265625 C-6.00911936 21.20411275 -5.62526738 18.69460465 -5 16 C-4.34 16 -3.68 16 -3 16 C-2.87625 14.845 -2.7525 13.69 -2.625 12.5 C-2.09721115 8.21649625 -1.11601963 4.16647328 0 0 Z " fill="#0D8EDC" transform="translate(845,485)"/>
<path d="M0 0 C3.9290625 -0.0309375 3.9290625 -0.0309375 7.9375 -0.0625 C8.7637085 -0.071604 9.58991699 -0.08070801 10.44116211 -0.09008789 C12.29433759 -0.09723945 14.14749308 -0.0502852 16 0 C17 1 17 1 17.11352539 3.04125977 C17.10828857 3.91580811 17.10305176 4.79035645 17.09765625 5.69140625 C17.09443359 6.63564453 17.09121094 7.57988281 17.08789062 8.55273438 C17.07951172 9.54595703 17.07113281 10.53917969 17.0625 11.5625 C17.05798828 12.55958984 17.05347656 13.55667969 17.04882812 14.58398438 C17.03700023 17.05601487 17.01906415 19.52801472 17 22 C11.39 22 5.78 22 0 22 C0 14.74 0 7.48 0 0 Z " fill="#1290D3" transform="translate(676,484)"/>
<path d="M0 0 C8.58 0 17.16 0 26 0 C25.67 0.99 25.34 1.98 25 3 C24.34 3 23.68 3 23 3 C22.67 3.99 22.34 4.98 22 6 C18.37 6.33 14.74 6.66 11 7 C9.68 9.97 8.36 12.94 7 16 C6.34 16 5.68 16 5 16 C4.79503906 16.63808594 4.59007812 17.27617188 4.37890625 17.93359375 C4.10949219 18.75988281 3.84007812 19.58617187 3.5625 20.4375 C3.29566406 21.26121094 3.02882813 22.08492187 2.75390625 22.93359375 C2 25 2 25 1 26 C-2.33618231 26.14257189 -5.65975606 26.04228157 -9 26 C-7.35 22.04 -5.7 18.08 -4 14 C-3.34 14 -2.68 14 -2 14 C-1.855625 13.195625 -1.71125 12.39125 -1.5625 11.5625 C-1 9 -1 9 0 8 C0 5.36 0 2.72 0 0 Z " fill="#F3F9FC" transform="translate(646,630)"/>
<path d="M0 0 C8.58 0 17.16 0 26 0 C25.34 1.98 24.68 3.96 24 6 C19.71 6 15.42 6 11 6 C10.54625 7.4025 10.0925 8.805 9.625 10.25 C8.63216796 13.31875358 7.50560497 16.14589666 6 19 C5.34 19 4.68 19 4 19 C3.34 21.31 2.68 23.62 2 26 C-1.3 26 -4.6 26 -8 26 C-7.01 23.36 -6.02 20.72 -5 18 C-4.34 18 -3.68 18 -3 18 C-1.08262696 12.68200307 0.53851453 7.65319698 1 2 C0.67 1.34 0.34 0.68 0 0 Z " fill="#F8FBFE" transform="translate(899,630)"/>
<path d="M0 0 C2.64 0 5.28 0 8 0 C8 1.32 8 2.64 8 4 C7.34 4 6.68 4 6 4 C5.89816406 5.11375 5.79632812 6.2275 5.69140625 7.375 C5.05618486 12.45677112 3.54225324 17.15223035 1.9375 22 C1.65583984 22.87011719 1.37417969 23.74023438 1.08398438 24.63671875 C0.39567574 26.75997589 -0.29906661 28.88088417 -1 31 C-1.66 31 -2.32 31 -3 31 C-3 31.99 -3 32.98 -3 34 C-6.3 34 -9.6 34 -13 34 C-12.67 32.68 -12.34 31.36 -12 30 C-11.34 30 -10.68 30 -10 30 C-9.773125 28.824375 -9.54625 27.64875 -9.3125 26.4375 C-7.77989164 19.45686044 -5.328741 12.74623825 -3 6 C-2.34 6 -1.68 6 -1 6 C-0.67 4.02 -0.34 2.04 0 0 Z " fill="#EFF7FC" transform="translate(735,516)"/>
<path d="M0 0 C13.53 0 27.06 0 41 0 C41 2.31 41 4.62 41 7 C27.47 7 13.94 7 0 7 C0 4.69 0 2.38 0 0 Z " fill="#1792D1" transform="translate(646,524)"/>
<path d="M0 0 C12.54 0 25.08 0 38 0 C38 1.98 38 3.96 38 6 C25.46 6 12.92 6 0 6 C0 4.02 0 2.04 0 0 Z " fill="#0187D0" transform="translate(467,494)"/>
<path d="M0 0 C12.54 0 25.08 0 38 0 C38 1.98 38 3.96 38 6 C25.46 6 12.92 6 0 6 C0 4.02 0 2.04 0 0 Z " fill="#0288D1" transform="translate(467,480)"/>
<path d="M0 0 C2.64 0 5.28 0 8 0 C6.98408579 5.46864457 5.92908943 10.76390013 4 16 C3.34 16 2.68 16 2 16 C1.87882813 16.68707031 1.75765625 17.37414062 1.6328125 18.08203125 C1.38144531 19.43361328 1.38144531 19.43361328 1.125 20.8125 C0.88136719 22.15248047 0.88136719 22.15248047 0.6328125 23.51953125 C0 26 0 26 -2 29 C-5.125 29.1875 -5.125 29.1875 -8 29 C-7.505 24.545 -7.505 24.545 -7 20 C-6.34 20 -5.68 20 -5 20 C-4.89042969 19.39414062 -4.78085937 18.78828125 -4.66796875 18.1640625 C-3.49558943 11.96856205 -1.91661553 6.00539533 0 0 Z " fill="#EFF7FB" transform="translate(559,522)"/>
<path d="M0 0 C13.53 0 27.06 0 41 0 C41 1.65 41 3.3 41 5 C27.47 5 13.94 5 0 5 C0 3.35 0 1.7 0 0 Z " fill="#0489CD" transform="translate(646,538)"/>
<path d="M0 0 C2.31 0 4.62 0 7 0 C7 9.24 7 18.48 7 28 C4.69 28 2.38 28 0 28 C0 18.76 0 9.52 0 0 Z " fill="#FEFEFE" transform="translate(586,523)"/>
<path d="M0 0 C0 2.64 0 5.28 0 8 C-2.70726366 8.5064814 -5.41557124 9.005351 -8.125 9.5 C-8.88554688 9.64308594 -9.64609375 9.78617188 -10.4296875 9.93359375 C-14.68042914 10.70312456 -18.65859197 11.16644376 -23 11 C-23 8.03 -23 5.06 -23 2 C-20.10452736 1.66324721 -17.20868928 1.33048266 -14.3125 1 C-13.49587891 0.90460937 -12.67925781 0.80921875 -11.83789062 0.7109375 C-7.87139948 0.26129478 -3.99997537 -0.13034543 0 0 Z " fill="#F0F8FD" transform="translate(925,539)"/>
<path d="M0 0 C9.00478183 -0.61864913 9.00478183 -0.61864913 12.3125 1.4375 C19 11.59259259 19 11.59259259 19 16 C19.66 16.33 20.32 16.66 21 17 C19.741875 17.04125 18.48375 17.0825 17.1875 17.125 C16.47980469 17.14820313 15.77210938 17.17140625 15.04296875 17.1953125 C13 17 13 17 10 15 C8.97056483 13.26282816 7.94457834 11.52246993 6.984375 9.74609375 C5.96423138 7.84535529 5.96423138 7.84535529 4.25 5.6875 C3 4 3 4 3 2 C2.01 1.67 1.02 1.34 0 1 C0 0.67 0 0.34 0 0 Z " fill="#F3F9FC" transform="translate(722,494)"/>
<path d="M0 0 C3.63 0 7.26 0 11 0 C11.98219627 1.76915475 12.96065359 3.54038569 13.9375 5.3125 C14.48277344 6.29863281 15.02804687 7.28476562 15.58984375 8.30078125 C17 11 17 11 18 14 C18.66 14 19.32 14 20 14 C20 14.99 20 15.98 20 17 C17.36 17 14.72 17 12 17 C11.9175 16.38125 11.835 15.7625 11.75 15.125 C11.5025 14.42375 11.255 13.7225 11 13 C10.37867188 12.70996094 9.75734375 12.41992188 9.1171875 12.12109375 C6.53954897 10.75618184 5.79187322 9.45587788 4.375 6.9375 C2.7573282 3.8842328 2.7573282 3.8842328 0 2 C0 1.34 0 0.68 0 0 Z " fill="#EAF5FB" transform="translate(723,474)"/>
<path d="M0 0 C2.97 0 5.94 0 9 0 C8.52309796 1.62566606 8.04340334 3.25051311 7.5625 4.875 C7.29566406 5.77992188 7.02882813 6.68484375 6.75390625 7.6171875 C6 10 6 10 5 12 C4.34 12 3.68 12 3 12 C2.67 12.99 2.34 13.98 2 15 C-0.97 15 -3.94 15 -7 15 C-6.67 14.01 -6.34 13.02 -6 12 C-5.34 12 -4.68 12 -4 12 C-3.79503906 11.30132813 -3.59007812 10.60265625 -3.37890625 9.8828125 C-3.10949219 8.97273437 -2.84007812 8.06265625 -2.5625 7.125 C-2.29566406 6.22007812 -2.02882813 5.31515625 -1.75390625 4.3828125 C-1 2 -1 2 0 0 Z " fill="#058ADD" transform="translate(873,635)"/>
<path d="M0 0 C8.25 0 16.5 0 25 0 C25 1.65 25 3.3 25 5 C16.75 5 8.5 5 0 5 C0 3.35 0 1.7 0 0 Z " fill="#CCE7F5" transform="translate(503,666)"/>
<path d="M0 0 C6.27 0 12.54 0 19 0 C19 1.98 19 3.96 19 6 C12.73 6 6.46 6 0 6 C0 6.66 0 7.32 0 8 C-0.99 7.67 -1.98 7.34 -3 7 C-2.67 6.01 -2.34 5.02 -2 4 C-1.34 4 -0.68 4 0 4 C0 2.68 0 1.36 0 0 Z " fill="#088AD1" transform="translate(464,524)"/>
<path d="M0 0 C9.9 0 19.8 0 30 0 C30 0.33 30 0.66 30 1 C27.03 1 24.06 1 21 1 C21 2.98 21 4.96 21 7 C16.05 7 11.1 7 6 7 C6.33 5.02 6.66 3.04 7 1 C4.69 1 2.38 1 0 1 C0 0.67 0 0.34 0 0 Z " fill="#0388D0" transform="translate(461,509)"/>
<path d="M0 0 C6.93 0 13.86 0 21 0 C19.7455037 3.7634889 17.95278233 5.39056445 15 8 C12.6875 8.8125 12.6875 8.8125 11 9 C10.61199219 8.35546875 10.22398437 7.7109375 9.82421875 7.046875 C8.16053515 4.79121416 8.16053515 4.79121416 5.51953125 4.390625 C4.17955078 4.32101562 4.17955078 4.32101562 2.8125 4.25 C1.46091797 4.16492188 1.46091797 4.16492188 0.08203125 4.078125 C-0.60503906 4.05234375 -1.29210937 4.0265625 -2 4 C-1.34 2.68 -0.68 1.36 0 0 Z " fill="#0E8EE2" transform="translate(936,483)"/>
<path d="M0 0 C5.28 0 10.56 0 16 0 C16 2.31 16 4.62 16 7 C10.72 7 5.44 7 0 7 C0 4.69 0 2.38 0 0 Z " fill="#0489CD" transform="translate(556,495)"/>
<path d="M0 0 C5.28 0 10.56 0 16 0 C16 2.31 16 4.62 16 7 C10.72 7 5.44 7 0 7 C0 4.69 0 2.38 0 0 Z " fill="#0388CD" transform="translate(556,480)"/>
<path d="M0 0 C4.95 0 9.9 0 15 0 C15 2.31 15 4.62 15 7 C10.05 7 5.1 7 0 7 C0 4.69 0 2.38 0 0 Z " fill="#0589CD" transform="translate(581,495)"/>
<path d="M0 0 C4.95 0 9.9 0 15 0 C15 2.31 15 4.62 15 7 C10.05 7 5.1 7 0 7 C0 4.69 0 2.38 0 0 Z " fill="#0489CD" transform="translate(581,480)"/>
<path d="M0 0 C3.125 -0.1875 3.125 -0.1875 6 0 C5.34 2.64 4.68 5.28 4 8 C3.34 8 2.68 8 2 8 C1.34 9.98 0.68 11.96 0 14 C-2.31 14 -4.62 14 -7 14 C-7 13.34 -7 12.68 -7 12 C-6.34 12 -5.68 12 -5 12 C-4.80664062 11.38511719 -4.61328125 10.77023437 -4.4140625 10.13671875 C-4.02347656 8.92435547 -4.02347656 8.92435547 -3.625 7.6875 C-3.24214844 6.48673828 -3.24214844 6.48673828 -2.8515625 5.26171875 C-2 3 -2 3 0 0 Z " fill="#0D8DCE" transform="translate(622,636)"/>
<path d="M0 0 C2 2 2 2 2.13525391 4.88916016 C2.08288574 6.09362793 2.03051758 7.2980957 1.9765625 8.5390625 C1.925 9.84101562 1.8734375 11.14296875 1.8203125 12.484375 C1.75543042 13.86459379 1.69032333 15.24480202 1.625 16.625 C1.56676301 18.01298149 1.50945967 19.4010025 1.453125 20.7890625 C1.31128555 24.19320926 1.15983765 27.59665846 1 31 C-5.15234375 31.09765625 -5.15234375 31.09765625 -7 31 C-8 30 -8 30 -8.11352539 27.22436523 C-8.10828857 26.01466064 -8.10305176 24.80495605 -8.09765625 23.55859375 C-8.09443359 22.25341797 -8.09121094 20.94824219 -8.08789062 19.60351562 C-8.07953401 18.2148431 -8.07106905 16.82617123 -8.0625 15.4375 C-8.05748666 14.04492344 -8.05292347 12.65234519 -8.04882812 11.25976562 C-8.03699434 7.8398013 -8.0205088 4.41992156 -8 1 C-1.9453125 0.0234375 -1.9453125 0.0234375 0 0 Z M-7 2 C-7 11.24 -7 20.48 -7 30 C-4.69 30 -2.38 30 0 30 C0 20.76 0 11.52 0 2 C-2.31 2 -4.62 2 -7 2 Z " fill="#90CAE7" transform="translate(593,521)"/>
<path d="M0 0 C1.98 0 3.96 0 6 0 C6 2.64 6 5.28 6 8 C1.38 8 -3.24 8 -8 8 C-8 7.34 -8 6.68 -8 6 C-5.69 6 -3.38 6 -1 6 C-0.67 4.02 -0.34 2.04 0 0 Z " fill="#118FD1" transform="translate(641,485)"/>
<path d="M0 0 C3.3 0 6.6 0 10 0 C9.67 1.32 9.34 2.64 9 4 C5.7 4 2.4 4 -1 4 C-0.67 2.68 -0.34 1.36 0 0 Z " fill="#078BD5" transform="translate(757,635)"/>
</svg>
